<svg width="16" height="16" viewBox="0 0 16 16" fill="none" xmlns="http://www.w3.org/2000/svg">
<path d="M7.57049 11.1771L1.57049 5.84375C1.43803 5.72696 1.35732 5.56239 1.34607 5.38616C1.33482 5.20993 1.39396 5.03643 1.51049 4.90375C1.62728 4.77129 1.79185 4.69058 1.96808 4.67933C2.14431 4.66808 2.31781 4.72722 2.45049 4.84375L8.01049 9.78374L13.5705 4.84375C13.7043 4.736 13.8745 4.68404 14.0456 4.69872C14.2168 4.7134 14.3757 4.79357 14.4892 4.92253C14.6026 5.05149 14.662 5.21927 14.6548 5.3909C14.6476 5.56253 14.5744 5.72475 14.4505 5.84375L8.45049 11.1771C8.32883 11.284 8.17243 11.3429 8.01049 11.3429C7.84855 11.3429 7.69215 11.284 7.57049 11.1771Z" fill="#3F51B5"/>
</svg>
