<svg width="127" height="26" viewBox="0 0 127 26" fill="none" xmlns="http://www.w3.org/2000/svg">
<path d="M40.5887 18V16.978L43.1647 14.276C43.5567 13.8653 43.8927 13.5013 44.1727 13.184C44.4527 12.8667 44.6674 12.554 44.8167 12.246C44.9661 11.938 45.0407 11.6067 45.0407 11.252C45.0407 10.664 44.8774 10.2627 44.5507 10.048C44.2334 9.824 43.7481 9.712 43.0947 9.712C42.8521 9.712 42.5814 9.73067 42.2827 9.768C41.9934 9.796 41.7087 9.83333 41.4287 9.88C41.1581 9.91733 40.9294 9.95933 40.7427 10.006L40.6447 8.998C40.8501 8.942 41.0974 8.886 41.3867 8.83C41.6761 8.774 41.9934 8.72733 42.3387 8.69C42.6841 8.64333 43.0201 8.62 43.3467 8.62C44.3267 8.62 45.0641 8.82067 45.5587 9.222C46.0627 9.614 46.3147 10.244 46.3147 11.112C46.3147 11.5693 46.2401 11.9847 46.0907 12.358C45.9507 12.722 45.7361 13.0767 45.4467 13.422C45.1667 13.7673 44.8027 14.1547 44.3547 14.584L42.0167 16.936H46.5247V18H40.5887ZM51.321 18.14C50.9757 18.14 50.6117 18.1167 50.229 18.07C49.8464 18.0327 49.487 17.986 49.151 17.93C48.815 17.874 48.535 17.818 48.311 17.762L48.409 16.768C48.6237 16.8053 48.885 16.8473 49.193 16.894C49.5104 16.9407 49.8464 16.9827 50.201 17.02C50.5557 17.048 50.887 17.062 51.195 17.062C51.8484 17.062 52.329 16.922 52.637 16.642C52.9544 16.362 53.113 15.942 53.113 15.382C53.113 14.9807 53.0337 14.6633 52.875 14.43C52.7164 14.1967 52.497 14.024 52.217 13.912C51.9464 13.8 51.643 13.7393 51.307 13.73H49.431V12.694H51.293C51.5264 12.694 51.7644 12.6333 52.007 12.512C52.259 12.3813 52.469 12.1993 52.637 11.966C52.8144 11.7233 52.903 11.434 52.903 11.098C52.903 10.594 52.763 10.2347 52.483 10.02C52.203 9.796 51.7364 9.684 51.083 9.684C50.7844 9.684 50.4717 9.70267 50.145 9.74C49.8277 9.768 49.5244 9.80533 49.235 9.852C48.955 9.88933 48.7217 9.93133 48.535 9.978L48.437 8.998C48.633 8.942 48.8757 8.886 49.165 8.83C49.4637 8.76467 49.781 8.71333 50.117 8.676C50.4624 8.62933 50.803 8.606 51.139 8.606C51.8857 8.606 52.4784 8.69467 52.917 8.872C53.3557 9.04 53.673 9.30133 53.869 9.656C54.065 10.0107 54.163 10.468 54.163 11.028C54.163 11.3733 54.107 11.672 53.995 11.924C53.8924 12.1667 53.7617 12.372 53.603 12.54C53.4537 12.6987 53.3044 12.8247 53.155 12.918C53.015 13.0113 52.903 13.0813 52.819 13.128C53.1364 13.24 53.4117 13.3753 53.645 13.534C53.8784 13.6927 54.0604 13.912 54.191 14.192C54.3217 14.472 54.387 14.8547 54.387 15.34C54.387 15.9747 54.2797 16.502 54.065 16.922C53.8504 17.3327 53.5144 17.6407 53.057 17.846C52.609 18.042 52.0304 18.14 51.321 18.14ZM59.2253 18.126C58.88 18.126 58.5113 18.1027 58.1193 18.056C57.7367 18.0093 57.368 17.958 57.0133 17.902C56.6587 17.8367 56.3647 17.776 56.1313 17.72L56.2573 16.74C56.4907 16.7773 56.7707 16.824 57.0973 16.88C57.4333 16.9267 57.774 16.9687 58.1193 17.006C58.474 17.034 58.8007 17.048 59.0993 17.048C59.7153 17.048 60.2007 16.8753 60.5553 16.53C60.91 16.1847 61.0873 15.6807 61.0873 15.018C61.0873 14.57 61.008 14.22 60.8493 13.968C60.7 13.7067 60.4853 13.5247 60.2053 13.422C59.9347 13.31 59.6127 13.254 59.2393 13.254C58.9687 13.254 58.6933 13.282 58.4133 13.338C58.1427 13.394 57.8953 13.464 57.6713 13.548C57.4473 13.6227 57.2607 13.702 57.1113 13.786L56.2853 13.632L56.5373 8.76H61.9833V9.866H57.5313L57.2933 12.694C57.452 12.6193 57.6433 12.5447 57.8673 12.47C58.1007 12.386 58.348 12.316 58.6093 12.26C58.8707 12.1947 59.132 12.162 59.3933 12.162C60 12.162 60.5227 12.2553 60.9613 12.442C61.4 12.6193 61.7407 12.9087 61.9833 13.31C62.226 13.7113 62.3473 14.2433 62.3473 14.906C62.3473 15.6247 62.2213 16.222 61.9693 16.698C61.7267 17.174 61.372 17.5333 60.9053 17.776C60.4387 18.0093 59.8787 18.126 59.2253 18.126ZM72.4178 7.864V9.096C73.5005 9.11467 74.3545 9.292 74.9798 9.628C75.6052 9.964 76.0485 10.412 76.3098 10.972C76.5712 11.5227 76.7018 12.1387 76.7018 12.82C76.7018 13.268 76.6318 13.716 76.4918 14.164C76.3612 14.6027 76.1325 15.004 75.8058 15.368C75.4792 15.7227 75.0405 16.012 74.4898 16.236C73.9392 16.46 73.2485 16.5813 72.4178 16.6V18.14H71.1718V16.6C70.3225 16.5813 69.6178 16.46 69.0578 16.236C68.5072 16.0027 68.0732 15.704 67.7558 15.34C67.4385 14.9667 67.2145 14.5607 67.0838 14.122C66.9532 13.6833 66.8878 13.2493 66.8878 12.82C66.8878 12.3253 66.9578 11.8587 67.0978 11.42C67.2472 10.972 67.4852 10.58 67.8118 10.244C68.1478 9.89867 68.5912 9.62333 69.1418 9.418C69.6925 9.21267 70.3692 9.10533 71.1718 9.096V7.864H72.4178ZM71.1718 10.16C70.4252 10.1787 69.8278 10.3 69.3798 10.524C68.9412 10.748 68.6285 11.056 68.4418 11.448C68.2552 11.8307 68.1618 12.2833 68.1618 12.806C68.1618 13.3567 68.2645 13.8373 68.4698 14.248C68.6845 14.6493 69.0112 14.962 69.4498 15.186C69.8978 15.41 70.4718 15.536 71.1718 15.564V10.16ZM72.4178 15.564C73.1365 15.536 73.7152 15.4053 74.1538 15.172C74.6018 14.9387 74.9238 14.6213 75.1198 14.22C75.3252 13.8093 75.4278 13.338 75.4278 12.806C75.4278 12.274 75.3345 11.8167 75.1478 11.434C74.9612 11.042 74.6485 10.7387 74.2098 10.524C73.7712 10.3 73.1738 10.1787 72.4178 10.16V15.564ZM79.7778 15.074C79.7778 15.158 79.7731 15.2793 79.7638 15.438C79.7638 15.5873 79.7591 15.7507 79.7498 15.928C79.7404 16.096 79.7311 16.2593 79.7218 16.418C79.7124 16.5673 79.7031 16.6887 79.6938 16.782L83.7118 10.496H85.2238V18H84.0758V13.576C84.0758 13.4267 84.0758 13.2307 84.0758 12.988C84.0851 12.7453 84.0944 12.5073 84.1038 12.274C84.1131 12.0313 84.1224 11.8493 84.1318 11.728L80.1418 18H78.6158V10.496H79.7778V15.074ZM92.0499 10.496H93.3939L90.1879 14.108L93.6599 18H92.2319L88.8439 14.192V18H87.6119V10.496H88.8439V14.136L92.0499 10.496ZM98.592 10.356C99.516 10.356 100.258 10.678 100.818 11.322C101.387 11.966 101.672 12.9367 101.672 14.234C101.672 15.0833 101.541 15.802 101.28 16.39C101.028 16.9687 100.669 17.4073 100.202 17.706C99.7447 17.9953 99.2034 18.14 98.578 18.14C98.1954 18.14 97.8547 18.0887 97.556 17.986C97.2574 17.8833 97.0007 17.7527 96.786 17.594C96.5807 17.426 96.4034 17.244 96.254 17.048H96.17C96.1887 17.2067 96.2074 17.4073 96.226 17.65C96.2447 17.8927 96.254 18.1027 96.254 18.28V21.36H95.022V10.496H96.03L96.198 11.518H96.254C96.4034 11.3033 96.5807 11.1073 96.786 10.93C97.0007 10.7527 97.2527 10.6127 97.542 10.51C97.8407 10.4073 98.1907 10.356 98.592 10.356ZM98.368 11.392C97.864 11.392 97.458 11.49 97.15 11.686C96.842 11.8727 96.618 12.1573 96.478 12.54C96.338 12.9227 96.2634 13.408 96.254 13.996V14.234C96.254 14.85 96.3194 15.3727 96.45 15.802C96.5807 16.2313 96.8 16.558 97.108 16.782C97.4254 17.006 97.8547 17.118 98.396 17.118C98.8534 17.118 99.2267 16.992 99.516 16.74C99.8147 16.488 100.034 16.1473 100.174 15.718C100.323 15.2793 100.398 14.78 100.398 14.22C100.398 13.3613 100.23 12.6753 99.894 12.162C99.5674 11.6487 99.0587 11.392 98.368 11.392ZM109.347 18H108.101V11.518H105.889C105.796 12.7033 105.679 13.716 105.539 14.556C105.399 15.3867 105.222 16.0633 105.007 16.586C104.793 17.1087 104.536 17.4913 104.237 17.734C103.939 17.9767 103.589 18.098 103.187 18.098C103.066 18.098 102.945 18.0887 102.823 18.07C102.711 18.0607 102.618 18.0373 102.543 18V17.076C102.599 17.0947 102.66 17.1087 102.725 17.118C102.791 17.1273 102.856 17.132 102.921 17.132C103.127 17.132 103.313 17.048 103.481 16.88C103.649 16.712 103.799 16.4553 103.929 16.11C104.069 15.7647 104.195 15.3307 104.307 14.808C104.419 14.276 104.517 13.6507 104.601 12.932C104.685 12.2133 104.76 11.4013 104.825 10.496H109.347V18ZM114.571 10.37C115.486 10.37 116.162 10.5707 116.601 10.972C117.04 11.3733 117.259 12.0127 117.259 12.89V18H116.363L116.125 16.936H116.069C115.854 17.2067 115.63 17.4353 115.397 17.622C115.173 17.7993 114.912 17.93 114.613 18.014C114.324 18.098 113.969 18.14 113.549 18.14C113.101 18.14 112.695 18.0607 112.331 17.902C111.976 17.7433 111.696 17.5007 111.491 17.174C111.286 16.838 111.183 16.418 111.183 15.914C111.183 15.1673 111.477 14.5933 112.065 14.192C112.653 13.7813 113.558 13.5573 114.781 13.52L116.055 13.478V13.03C116.055 12.4047 115.92 11.9707 115.649 11.728C115.378 11.4853 114.996 11.364 114.501 11.364C114.109 11.364 113.736 11.4247 113.381 11.546C113.026 11.658 112.695 11.7887 112.387 11.938L112.009 11.014C112.336 10.8367 112.723 10.6873 113.171 10.566C113.619 10.4353 114.086 10.37 114.571 10.37ZM114.935 14.374C114.002 14.4113 113.353 14.5607 112.989 14.822C112.634 15.0833 112.457 15.452 112.457 15.928C112.457 16.348 112.583 16.656 112.835 16.852C113.096 17.048 113.428 17.146 113.829 17.146C114.464 17.146 114.991 16.9733 115.411 16.628C115.831 16.2733 116.041 15.732 116.041 15.004V14.332L114.935 14.374ZM123.147 10.356C124.071 10.356 124.813 10.678 125.373 11.322C125.942 11.966 126.227 12.9367 126.227 14.234C126.227 15.0833 126.096 15.802 125.835 16.39C125.583 16.9687 125.223 17.4073 124.757 17.706C124.299 17.9953 123.758 18.14 123.133 18.14C122.75 18.14 122.409 18.0887 122.111 17.986C121.812 17.8833 121.555 17.7527 121.341 17.594C121.135 17.426 120.958 17.244 120.809 17.048H120.725C120.743 17.2067 120.762 17.4073 120.781 17.65C120.799 17.8927 120.809 18.1027 120.809 18.28V21.36H119.577V10.496H120.585L120.753 11.518H120.809C120.958 11.3033 121.135 11.1073 121.341 10.93C121.555 10.7527 121.807 10.6127 122.097 10.51C122.395 10.4073 122.745 10.356 123.147 10.356ZM122.923 11.392C122.419 11.392 122.013 11.49 121.705 11.686C121.397 11.8727 121.173 12.1573 121.033 12.54C120.893 12.9227 120.818 13.408 120.809 13.996V14.234C120.809 14.85 120.874 15.3727 121.005 15.802C121.135 16.2313 121.355 16.558 121.663 16.782C121.98 17.006 122.409 17.118 122.951 17.118C123.408 17.118 123.781 16.992 124.071 16.74C124.369 16.488 124.589 16.1473 124.729 15.718C124.878 15.2793 124.953 14.78 124.953 14.22C124.953 13.3613 124.785 12.6753 124.449 12.162C124.122 11.6487 123.613 11.392 122.923 11.392Z" fill="#11142D"/>
<path d="M18 3H6C4.67441 3.00159 3.40356 3.52888 2.46622 4.46622C1.52888 5.40356 1.00159 6.67441 1 8V16C1.00145 17.1522 1.40009 18.2687 2.12872 19.1613C2.85735 20.0538 3.87141 20.6679 5 20.9V24C4.99997 24.1811 5.0491 24.3587 5.14213 24.514C5.23516 24.6693 5.36861 24.7965 5.52823 24.8819C5.68786 24.9673 5.86769 25.0078 6.04852 24.999C6.22935 24.9902 6.4044 24.9325 6.555 24.832L12.3 21H18C19.3256 20.9984 20.5964 20.4711 21.5338 19.5338C22.4711 18.5965 22.9984 17.3256 23 16V8C22.9984 6.67441 22.4711 5.40356 21.5338 4.46622C20.5964 3.52888 19.3256 3.00159 18 3ZM16 15H8C7.73478 15 7.48043 14.8947 7.29289 14.7071C7.10536 14.5196 7 14.2652 7 14C7 13.7348 7.10536 13.4804 7.29289 13.2929C7.48043 13.1054 7.73478 13 8 13H16C16.2652 13 16.5196 13.1054 16.7071 13.2929C16.8946 13.4804 17 13.7348 17 14C17 14.2652 16.8946 14.5196 16.7071 14.7071C16.5196 14.8947 16.2652 15 16 15ZM18 11H6C5.73478 11 5.48043 10.8946 5.29289 10.7071C5.10536 10.5196 5 10.2652 5 10C5 9.73479 5.10536 9.48043 5.29289 9.2929C5.48043 9.10536 5.73478 9 6 9H18C18.2652 9 18.5196 9.10536 18.7071 9.2929C18.8946 9.48043 19 9.73479 19 10C19 10.2652 18.8946 10.5196 18.7071 10.7071C18.5196 10.8946 18.2652 11 18 11Z" fill="#3F51B5"/>
</svg>
