<svg width="64" height="24" viewBox="0 0 64 24" fill="none" xmlns="http://www.w3.org/2000/svg">
<g clip-path="url(#clip0_1041_7212)">
<path d="M12 4C9.87827 4 7.84344 4.84285 6.34315 6.34315C4.84285 7.84344 4 9.87827 4 12H7C7.53043 12 8.03914 12.2107 8.41421 12.5858C8.78929 12.9609 9 13.4696 9 14V19C9 19.5304 8.78929 20.0391 8.41421 20.4142C8.03914 20.7893 7.53043 21 7 21H4C3.46957 21 2.96086 20.7893 2.58579 20.4142C2.21071 20.0391 2 19.5304 2 19V12C2 6.477 6.477 2 12 2C17.523 2 22 6.477 22 12V19C22 19.5304 21.7893 20.0391 21.4142 20.4142C21.0391 20.7893 20.5304 21 20 21H17C16.4696 21 15.9609 20.7893 15.5858 20.4142C15.2107 20.0391 15 19.5304 15 19V14C15 13.4696 15.2107 12.9609 15.5858 12.5858C15.9609 12.2107 16.4696 12 17 12H20C20 9.87827 19.1571 7.84344 17.6569 6.34315C16.1566 4.84285 14.1217 4 12 4ZM4 14V19H7V14H4ZM17 14V19H20V14H17Z" fill="#9A9A9A"/>
</g>
<g clip-path="url(#clip1_1041_7212)">
<path d="M43 18.5V5C43 4.20435 43.3161 3.44129 43.8787 2.87868C44.4413 2.31607 45.2044 2 46 2H60C60.2652 2 60.5196 2.10536 60.7071 2.29289C60.8946 2.48043 61 2.73478 61 3V21C61 21.2652 60.8946 21.5196 60.7071 21.7071C60.5196 21.8946 60.2652 22 60 22H46.5C45.5717 22 44.6815 21.6313 44.0251 20.9749C43.3687 20.3185 43 19.4283 43 18.5ZM59 20V17H46.5C46.1022 17 45.7206 17.158 45.4393 17.4393C45.158 17.7206 45 18.1022 45 18.5C45 18.8978 45.158 19.2794 45.4393 19.5607C45.7206 19.842 46.1022 20 46.5 20H59ZM50 4H46C45.7348 4 45.4804 4.10536 45.2929 4.29289C45.1054 4.48043 45 4.73478 45 5V15.337C45.4687 15.1144 45.9812 14.9993 46.5 15H59V4H57V12L53.5 10L50 12V4Z" fill="#9A9A9A"/>
</g>
<defs>
<clipPath id="clip0_1041_7212">
<rect width="24" height="24" fill="white"/>
</clipPath>
<clipPath id="clip1_1041_7212">
<rect width="24" height="24" fill="white" transform="translate(40)"/>
</clipPath>
</defs>
</svg>
