<svg width="56" height="51" viewBox="0 0 56 51" fill="none" xmlns="http://www.w3.org/2000/svg">
  <path d="M16.3333 18.6667C16.3333 12.2233 21.5566 7 27.9999 7C34.4432 7 39.6666 12.2233 39.6666 18.6667C39.6666 25.11 34.4432 30.3333 27.9999 30.3333C21.5566 30.3333 16.3333 25.11 16.3333 18.6667ZM27.9999 25.6667C31.8659 25.6667 34.9999 22.5327 34.9999 18.6667C34.9999 14.8007 31.8659 11.6667 27.9999 11.6667C24.1339 11.6667 20.9999 14.8007 20.9999 18.6667C20.9999 22.5327 24.1339 25.6667 27.9999 25.6667Z" fill="#3F51B5" />
  <path d="M14.8006 38.134C11.2999 41.6347 9.33325 46.3826 9.33325 51.3333H13.9999C13.9999 47.6203 15.4749 44.0593 18.1004 41.4338C20.7259 38.8083 24.2869 37.3333 27.9999 37.3333C31.7129 37.3333 35.2739 38.8083 37.8994 41.4338C40.5249 44.0593 41.9999 47.6203 41.9999 51.3333H46.6666C46.6666 46.3826 44.6999 41.6347 41.1992 38.134C37.6986 34.6333 32.9506 32.6667 27.9999 32.6667C23.0492 32.6667 18.3013 34.6333 14.8006 38.134Z" fill="#3F51B5" />
</svg>