<svg width="207" height="45" viewBox="0 0 207 45" fill="none" xmlns="http://www.w3.org/2000/svg">
<path d="M21.3904 22.6C21.6651 22.3192 21.8564 21.9676 21.9429 21.5845C22.0294 21.2013 22.0078 20.8016 21.8804 20.43C21.7609 20.0573 21.5391 19.7257 21.2403 19.4729C20.9415 19.2201 20.5778 19.0562 20.1904 19L15.9004 18.34C15.8804 18.3342 15.862 18.324 15.8464 18.3102C15.8308 18.2963 15.8185 18.2792 15.8104 18.26L13.9304 14.26C13.7656 13.8855 13.4953 13.5669 13.1527 13.3432C12.81 13.1195 12.4097 13.0003 12.0004 13C11.5959 12.9983 11.1995 13.1135 10.8589 13.3317C10.5183 13.5499 10.248 13.8619 10.0804 14.23L8.20042 18.23C8.19016 18.2495 8.17599 18.2667 8.15878 18.2805C8.14157 18.2942 8.1217 18.3043 8.10043 18.31L3.82042 19C3.43252 19.0578 3.06825 19.2221 2.76813 19.4745C2.468 19.727 2.24379 20.0577 2.12042 20.43C1.99772 20.8029 1.97945 21.2023 2.06759 21.5848C2.15573 21.9673 2.34692 22.3184 2.62042 22.6L5.78043 25.85C5.78952 25.8705 5.79422 25.8926 5.79422 25.915C5.79422 25.9374 5.78952 25.9596 5.78043 25.98L5.04042 30.52C4.97163 30.9154 5.01648 31.3222 5.16975 31.6931C5.32302 32.064 5.57842 32.3838 5.90626 32.6152C6.2341 32.8467 6.6209 32.9804 7.02171 33.0007C7.42252 33.021 7.82086 32.9272 8.17042 32.73L11.9004 30.66C11.919 30.6504 11.9395 30.6453 11.9604 30.6453C11.9813 30.6453 12.0019 30.6504 12.0204 30.66L15.7504 32.73C16.1005 32.9229 16.4977 33.0134 16.8967 32.9913C17.2958 32.9691 17.6805 32.835 18.007 32.6045C18.3335 32.374 18.5886 32.0563 18.743 31.6877C18.8974 31.319 18.9451 30.9144 18.8804 30.52L18.1904 26C18.1799 25.9818 18.1743 25.9611 18.1743 25.94C18.1743 25.919 18.1799 25.8983 18.1904 25.88L21.3904 22.6Z" fill="#FF7F4D"/>
<path d="M53.3904 22.6C53.6651 22.3192 53.8564 21.9676 53.9429 21.5845C54.0294 21.2013 54.0078 20.8016 53.8804 20.43C53.7609 20.0573 53.5391 19.7257 53.2403 19.4729C52.9415 19.2201 52.5778 19.0562 52.1904 19L47.9004 18.34C47.8804 18.3342 47.862 18.324 47.8464 18.3102C47.8308 18.2963 47.8185 18.2792 47.8104 18.26L45.9304 14.26C45.7656 13.8855 45.4953 13.5669 45.1527 13.3432C44.81 13.1195 44.4097 13.0003 44.0004 13C43.5959 12.9983 43.1995 13.1135 42.8589 13.3317C42.5183 13.5499 42.248 13.8619 42.0804 14.23L40.2004 18.23C40.1902 18.2495 40.176 18.2667 40.1588 18.2805C40.1416 18.2942 40.1217 18.3043 40.1004 18.31L35.8204 19C35.4325 19.0578 35.0682 19.2221 34.7681 19.4745C34.468 19.727 34.2438 20.0577 34.1204 20.43C33.9977 20.8029 33.9795 21.2023 34.0676 21.5848C34.1557 21.9673 34.3469 22.3184 34.6204 22.6L37.7804 25.85C37.7895 25.8705 37.7942 25.8926 37.7942 25.915C37.7942 25.9374 37.7895 25.9596 37.7804 25.98L37.0404 30.52C36.9716 30.9154 37.0165 31.3222 37.1698 31.6931C37.323 32.064 37.5784 32.3838 37.9063 32.6152C38.2341 32.8467 38.6209 32.9804 39.0217 33.0007C39.4225 33.021 39.8209 32.9272 40.1704 32.73L43.9004 30.66C43.919 30.6504 43.9395 30.6453 43.9604 30.6453C43.9813 30.6453 44.0019 30.6504 44.0204 30.66L47.7504 32.73C48.1005 32.9229 48.4977 33.0134 48.8967 32.9913C49.2958 32.9691 49.6805 32.835 50.007 32.6045C50.3335 32.374 50.5886 32.0563 50.743 31.6877C50.8974 31.319 50.9451 30.9144 50.8804 30.52L50.1904 26C50.1799 25.9818 50.1743 25.9611 50.1743 25.94C50.1743 25.919 50.1799 25.8983 50.1904 25.88L53.3904 22.6Z" fill="#FF7F4D"/>
<path d="M85.3904 22.6C85.6651 22.3192 85.8564 21.9676 85.9429 21.5845C86.0294 21.2013 86.0078 20.8016 85.8804 20.43C85.7609 20.0573 85.5391 19.7257 85.2403 19.4729C84.9415 19.2201 84.5778 19.0562 84.1904 19L79.9004 18.34C79.8804 18.3342 79.862 18.324 79.8464 18.3102C79.8308 18.2963 79.8185 18.2792 79.8104 18.26L77.9304 14.26C77.7656 13.8855 77.4953 13.5669 77.1527 13.3432C76.81 13.1195 76.4097 13.0003 76.0004 13C75.5959 12.9983 75.1995 13.1135 74.8589 13.3317C74.5183 13.5499 74.248 13.8619 74.0804 14.23L72.2004 18.23C72.1902 18.2495 72.176 18.2667 72.1588 18.2805C72.1416 18.2942 72.1217 18.3043 72.1004 18.31L67.8204 19C67.4325 19.0578 67.0682 19.2221 66.7681 19.4745C66.468 19.727 66.2438 20.0577 66.1204 20.43C65.9977 20.8029 65.9795 21.2023 66.0676 21.5848C66.1557 21.9673 66.3469 22.3184 66.6204 22.6L69.7804 25.85C69.7895 25.8705 69.7942 25.8926 69.7942 25.915C69.7942 25.9374 69.7895 25.9596 69.7804 25.98L69.0404 30.52C68.9716 30.9154 69.0165 31.3222 69.1698 31.6931C69.323 32.064 69.5784 32.3838 69.9063 32.6152C70.2341 32.8467 70.6209 32.9804 71.0217 33.0007C71.4225 33.021 71.8209 32.9272 72.1704 32.73L75.9004 30.66C75.919 30.6504 75.9395 30.6453 75.9604 30.6453C75.9813 30.6453 76.0019 30.6504 76.0204 30.66L79.7504 32.73C80.1005 32.9229 80.4977 33.0134 80.8967 32.9913C81.2958 32.9691 81.6805 32.835 82.007 32.6045C82.3335 32.374 82.5886 32.0563 82.743 31.6877C82.8974 31.319 82.9451 30.9144 82.8804 30.52L82.1904 26C82.1799 25.9818 82.1743 25.9611 82.1743 25.94C82.1743 25.919 82.1799 25.8983 82.1904 25.88L85.3904 22.6Z" fill="#FF7F4D"/>
<path d="M117.39 22.6C117.665 22.3192 117.856 21.9676 117.943 21.5845C118.029 21.2013 118.008 20.8016 117.88 20.43C117.761 20.0573 117.539 19.7257 117.24 19.4729C116.942 19.2201 116.578 19.0562 116.19 19L111.9 18.34C111.88 18.3342 111.862 18.324 111.846 18.3102C111.831 18.2963 111.819 18.2792 111.81 18.26L109.93 14.26C109.766 13.8855 109.495 13.5669 109.153 13.3432C108.81 13.1195 108.41 13.0003 108 13C107.596 12.9983 107.2 13.1135 106.859 13.3317C106.518 13.5499 106.248 13.8619 106.08 14.23L104.2 18.23C104.19 18.2495 104.176 18.2667 104.159 18.2805C104.142 18.2942 104.122 18.3043 104.1 18.31L99.8204 19C99.4325 19.0578 99.0682 19.2221 98.7681 19.4745C98.468 19.727 98.2438 20.0577 98.1204 20.43C97.9977 20.8029 97.9795 21.2023 98.0676 21.5848C98.1557 21.9673 98.3469 22.3184 98.6204 22.6L101.78 25.85C101.79 25.8705 101.794 25.8926 101.794 25.915C101.794 25.9374 101.79 25.9596 101.78 25.98L101.04 30.52C100.972 30.9154 101.016 31.3222 101.17 31.6931C101.323 32.064 101.578 32.3838 101.906 32.6152C102.234 32.8467 102.621 32.9804 103.022 33.0007C103.423 33.021 103.821 32.9272 104.17 32.73L107.9 30.66C107.919 30.6504 107.94 30.6453 107.96 30.6453C107.981 30.6453 108.002 30.6504 108.02 30.66L111.75 32.73C112.1 32.9229 112.498 33.0134 112.897 32.9913C113.296 32.9691 113.681 32.835 114.007 32.6045C114.334 32.374 114.589 32.0563 114.743 31.6877C114.897 31.319 114.945 30.9144 114.88 30.52L114.19 26C114.18 25.9818 114.174 25.9611 114.174 25.94C114.174 25.919 114.18 25.8983 114.19 25.88L117.39 22.6Z" fill="#FF7F4D"/>
<path d="M149.39 22.6C149.665 22.3192 149.856 21.9676 149.943 21.5845C150.029 21.2013 150.008 20.8016 149.88 20.43C149.761 20.0573 149.539 19.7257 149.24 19.4729C148.942 19.2201 148.578 19.0562 148.19 19L143.9 18.34C143.88 18.3342 143.862 18.324 143.846 18.3102C143.831 18.2963 143.819 18.2792 143.81 18.26L141.93 14.26C141.766 13.8855 141.495 13.5669 141.153 13.3432C140.81 13.1195 140.41 13.0003 140 13C139.596 12.9983 139.2 13.1135 138.859 13.3317C138.518 13.5499 138.248 13.8619 138.08 14.23L136.2 18.23C136.19 18.2495 136.176 18.2667 136.159 18.2805C136.142 18.2942 136.122 18.3043 136.1 18.31L131.82 19C131.433 19.0578 131.068 19.2221 130.768 19.4745C130.468 19.727 130.244 20.0577 130.12 20.43C129.998 20.8029 129.979 21.2023 130.068 21.5848C130.156 21.9673 130.347 22.3184 130.62 22.6L133.78 25.85C133.79 25.8705 133.794 25.8926 133.794 25.915C133.794 25.9374 133.79 25.9596 133.78 25.98L133.04 30.52C132.972 30.9154 133.016 31.3222 133.17 31.6931C133.323 32.064 133.578 32.3838 133.906 32.6152C134.234 32.8467 134.621 32.9804 135.022 33.0007C135.423 33.021 135.821 32.9272 136.17 32.73L139.9 30.66C139.919 30.6504 139.94 30.6453 139.96 30.6453C139.981 30.6453 140.002 30.6504 140.02 30.66L143.75 32.73C144.1 32.9229 144.498 33.0134 144.897 32.9913C145.296 32.9691 145.681 32.835 146.007 32.6045C146.334 32.374 146.589 32.0563 146.743 31.6877C146.897 31.319 146.945 30.9144 146.88 30.52L146.19 26C146.18 25.9818 146.174 25.9611 146.174 25.94C146.174 25.919 146.18 25.8983 146.19 25.88L149.39 22.6Z" fill="#F5F5F5"/>
<path d="M182.484 31V28.36H175.284V25.96L178.884 15.16H182.58L178.572 25.6H182.484L182.676 21.52L185.748 21.472V25.6H187.212V28.36H185.748V31H182.484ZM189.1 31V27.448H192.436V31H189.1ZM200.336 31.264C199.312 31.264 198.424 31.128 197.672 30.856C196.92 30.568 196.296 30.112 195.8 29.488C195.32 28.848 194.952 28.016 194.696 26.992C194.456 25.968 194.336 24.712 194.336 23.224C194.336 21.688 194.456 20.384 194.696 19.312C194.952 18.24 195.328 17.384 195.824 16.744C196.32 16.088 196.936 15.616 197.672 15.328C198.424 15.04 199.304 14.896 200.312 14.896C201.352 14.896 202.248 15.04 203 15.328C203.752 15.616 204.368 16.088 204.848 16.744C205.344 17.384 205.704 18.24 205.928 19.312C206.168 20.368 206.288 21.672 206.288 23.224C206.288 25.192 206.072 26.768 205.64 27.952C205.224 29.12 204.576 29.968 203.696 30.496C202.816 31.008 201.696 31.264 200.336 31.264ZM200.336 28.48C200.784 28.48 201.168 28.408 201.488 28.264C201.824 28.104 202.104 27.832 202.328 27.448C202.552 27.064 202.712 26.528 202.808 25.84C202.92 25.152 202.976 24.28 202.976 23.224C202.976 22.104 202.92 21.184 202.808 20.464C202.712 19.744 202.56 19.184 202.352 18.784C202.144 18.368 201.872 18.08 201.536 17.92C201.2 17.744 200.8 17.656 200.336 17.656C199.872 17.656 199.472 17.744 199.136 17.92C198.8 18.08 198.52 18.36 198.296 18.76C198.088 19.16 197.928 19.728 197.816 20.464C197.704 21.184 197.648 22.112 197.648 23.248C197.648 24.304 197.704 25.176 197.816 25.864C197.944 26.552 198.12 27.088 198.344 27.472C198.568 27.84 198.84 28.104 199.16 28.264C199.496 28.408 199.888 28.48 200.336 28.48Z" fill="#242424"/>
</svg>
