<svg width="173" height="34" viewBox="0 0 173 34" fill="none" xmlns="http://www.w3.org/2000/svg">
<path d="M21.3904 16.6C21.6651 16.3192 21.8564 15.9676 21.9429 15.5845C22.0294 15.2013 22.0078 14.8016 21.8804 14.43C21.7609 14.0573 21.5391 13.7257 21.2403 13.4729C20.9415 13.2201 20.5778 13.0562 20.1904 13L15.9004 12.34C15.8804 12.3342 15.862 12.324 15.8464 12.3102C15.8308 12.2963 15.8185 12.2792 15.8104 12.26L13.9304 8.26002C13.7656 7.88546 13.4953 7.56692 13.1527 7.34321C12.81 7.11949 12.4097 7.00025 12.0004 7.00002C11.5959 6.99835 11.1995 7.11353 10.8589 7.33173C10.5183 7.54993 10.248 7.86186 10.0804 8.23002L8.20042 12.23C8.19016 12.2495 8.17599 12.2667 8.15878 12.2805C8.14157 12.2942 8.1217 12.3043 8.10043 12.31L3.82042 13C3.43252 13.0578 3.06825 13.2221 2.76813 13.4745C2.468 13.727 2.24379 14.0577 2.12042 14.43C1.99772 14.8029 1.97945 15.2023 2.06759 15.5848C2.15573 15.9673 2.34692 16.3184 2.62042 16.6L5.78043 19.85C5.78952 19.8705 5.79422 19.8926 5.79422 19.915C5.79422 19.9374 5.78952 19.9596 5.78043 19.98L5.04042 24.52C4.97163 24.9154 5.01648 25.3222 5.16975 25.6931C5.32302 26.064 5.57842 26.3838 5.90626 26.6152C6.2341 26.8467 6.6209 26.9804 7.02171 27.0007C7.42252 27.021 7.82086 26.9272 8.17042 26.73L11.9004 24.66C11.919 24.6504 11.9395 24.6453 11.9604 24.6453C11.9813 24.6453 12.0019 24.6504 12.0204 24.66L15.7504 26.73C16.1005 26.9229 16.4977 27.0134 16.8967 26.9913C17.2958 26.9691 17.6805 26.835 18.007 26.6045C18.3335 26.374 18.5886 26.0563 18.743 25.6877C18.8974 25.319 18.9451 24.9144 18.8804 24.52L18.1904 20C18.1799 19.9818 18.1743 19.9611 18.1743 19.94C18.1743 19.919 18.1799 19.8983 18.1904 19.88L21.3904 16.6Z" fill="#FF754C"/>
<path d="M43.9932 20.3369H42.4463V23H39.792V20.3369H34.3076V18.4473L39.9414 10.1504H42.4463V18.2275H43.9932V20.3369ZM39.792 18.2275V16.0479C39.792 15.8428 39.7949 15.5996 39.8008 15.3184C39.8125 15.0371 39.8242 14.7559 39.8359 14.4746C39.8477 14.1934 39.8594 13.9443 39.8711 13.7275C39.8887 13.5049 39.9004 13.3496 39.9062 13.2617H39.8359C39.7246 13.502 39.6074 13.7363 39.4844 13.9648C39.3613 14.1875 39.2178 14.4219 39.0537 14.668L36.6982 18.2275H39.792ZM45.3291 21.7432C45.3291 21.1924 45.4785 20.8057 45.7773 20.583C46.082 20.3604 46.4482 20.249 46.876 20.249C47.292 20.249 47.6494 20.3604 47.9482 20.583C48.2529 20.8057 48.4053 21.1924 48.4053 21.7432C48.4053 22.2705 48.2529 22.6514 47.9482 22.8857C47.6494 23.1201 47.292 23.2373 46.876 23.2373C46.4482 23.2373 46.082 23.1201 45.7773 22.8857C45.4785 22.6514 45.3291 22.2705 45.3291 21.7432ZM51.4287 23L56.2539 12.4355H49.917V10.1504H59.1367V11.8555L54.2764 23H51.4287Z" fill="#FF754C"/>
<path d="M72.3412 24V22.686L75.6532 19.212C76.1572 18.684 76.5892 18.216 76.9492 17.808C77.3092 17.4 77.5852 16.998 77.7772 16.602C77.9692 16.206 78.0652 15.78 78.0652 15.324C78.0652 14.568 77.8552 14.052 77.4352 13.776C77.0272 13.488 76.4032 13.344 75.5632 13.344C75.2512 13.344 74.9032 13.368 74.5192 13.416C74.1472 13.452 73.7812 13.5 73.4212 13.56C73.0732 13.608 72.7792 13.662 72.5392 13.722L72.4132 12.426C72.6772 12.354 72.9952 12.282 73.3672 12.21C73.7392 12.138 74.1472 12.078 74.5912 12.03C75.0352 11.97 75.4672 11.94 75.8872 11.94C77.1472 11.94 78.0952 12.198 78.7312 12.714C79.3792 13.218 79.7032 14.028 79.7032 15.144C79.7032 15.732 79.6072 16.266 79.4152 16.746C79.2352 17.214 78.9592 17.67 78.5872 18.114C78.2272 18.558 77.7592 19.056 77.1832 19.608L74.1772 22.632H79.9732V24H72.3412ZM87.5439 24V21.75H81.8739V20.526L85.1499 12.12H86.8959L83.5119 20.346H87.5439L87.5619 16.764H89.1279V20.346H90.5679V21.75H89.1279V24H87.5439ZM97.5986 24V21.75H91.9286V20.526L95.2046 12.12H96.9506L93.5666 20.346H97.5986L97.6166 16.764H99.1826V20.346H100.623V21.75H99.1826V24H97.5986ZM112.904 14.19C113.924 14.274 114.8 14.532 115.532 14.964C116.264 15.384 116.828 15.948 117.224 16.656C117.62 17.364 117.818 18.198 117.818 19.158C117.818 20.106 117.626 20.94 117.242 21.66C116.858 22.368 116.3 22.938 115.568 23.37C114.848 23.79 113.96 24.042 112.904 24.126V28.32H111.086V24.126C110.078 24.03 109.202 23.772 108.458 23.352C107.726 22.932 107.156 22.368 106.748 21.66C106.352 20.94 106.154 20.106 106.154 19.158C106.154 18.186 106.346 17.34 106.73 16.62C107.114 15.9 107.672 15.336 108.404 14.928C109.148 14.508 110.054 14.262 111.122 14.19V10.32H112.904V14.19ZM111.122 15.702C110.45 15.774 109.892 15.96 109.448 16.26C109.004 16.548 108.674 16.938 108.458 17.43C108.242 17.91 108.134 18.486 108.134 19.158C108.134 19.818 108.242 20.394 108.458 20.886C108.674 21.378 109.004 21.774 109.448 22.074C109.892 22.362 110.45 22.542 111.122 22.614V15.702ZM112.904 22.614C113.576 22.53 114.128 22.344 114.56 22.056C114.992 21.768 115.316 21.378 115.532 20.886C115.748 20.394 115.856 19.818 115.856 19.158C115.856 18.486 115.742 17.91 115.514 17.43C115.298 16.938 114.974 16.548 114.542 16.26C114.11 15.972 113.564 15.792 112.904 15.72V22.614ZM122.066 19.59C122.066 19.734 122.06 19.92 122.048 20.148C122.036 20.376 122.024 20.616 122.012 20.868C122 21.108 121.982 21.336 121.958 21.552C121.946 21.756 121.934 21.918 121.922 22.038L126.908 14.298H129.23V24H127.43V18.834C127.43 18.606 127.436 18.324 127.448 17.988C127.46 17.652 127.472 17.328 127.484 17.016C127.508 16.692 127.526 16.446 127.538 16.278L122.588 24H120.248V14.298H122.066V19.59ZM138.158 14.298H140.246L136.196 18.96L140.588 24H138.392L134.144 19.086V24H132.236V14.298H134.144V19.014L138.158 14.298ZM150.014 24H148.088V15.828H145.352C145.232 17.316 145.082 18.594 144.902 19.662C144.734 20.718 144.512 21.576 144.236 22.236C143.972 22.896 143.642 23.382 143.246 23.694C142.862 23.994 142.4 24.144 141.86 24.144C141.668 24.144 141.482 24.126 141.302 24.09C141.122 24.066 140.966 24.024 140.834 23.964V22.506C140.918 22.53 141.008 22.554 141.104 22.578C141.212 22.59 141.32 22.596 141.428 22.596C141.668 22.596 141.884 22.5 142.076 22.308C142.28 22.116 142.46 21.816 142.616 21.408C142.784 21 142.934 20.472 143.066 19.824C143.21 19.164 143.33 18.378 143.426 17.466C143.534 16.554 143.63 15.498 143.714 14.298H150.014V24ZM156.758 14.118C157.982 14.118 158.894 14.388 159.494 14.928C160.094 15.456 160.394 16.29 160.394 17.43V24H159.044L158.666 22.65H158.594C158.318 22.998 158.03 23.286 157.73 23.514C157.442 23.742 157.106 23.91 156.722 24.018C156.35 24.126 155.894 24.18 155.354 24.18C154.778 24.18 154.256 24.078 153.788 23.874C153.332 23.658 152.972 23.334 152.708 22.902C152.444 22.458 152.312 21.906 152.312 21.246C152.312 20.262 152.684 19.512 153.428 18.996C154.184 18.48 155.33 18.198 156.866 18.15L158.522 18.096V17.556C158.522 16.836 158.36 16.332 158.036 16.044C157.712 15.756 157.256 15.612 156.668 15.612C156.164 15.612 155.684 15.684 155.228 15.828C154.772 15.972 154.34 16.146 153.932 16.35L153.32 14.964C153.776 14.724 154.298 14.526 154.886 14.37C155.486 14.202 156.11 14.118 156.758 14.118ZM157.208 19.374C156.104 19.422 155.336 19.608 154.904 19.932C154.484 20.244 154.274 20.688 154.274 21.264C154.274 21.768 154.424 22.134 154.724 22.362C155.036 22.59 155.426 22.704 155.894 22.704C156.65 22.704 157.274 22.494 157.766 22.074C158.258 21.654 158.504 21.024 158.504 20.184V19.338L157.208 19.374ZM168.174 14.118C169.338 14.118 170.274 14.538 170.982 15.378C171.702 16.218 172.062 17.472 172.062 19.14C172.062 20.232 171.9 21.156 171.576 21.912C171.252 22.668 170.796 23.238 170.208 23.622C169.62 23.994 168.936 24.18 168.156 24.18C167.664 24.18 167.232 24.12 166.86 24C166.488 23.868 166.17 23.7 165.906 23.496C165.654 23.28 165.432 23.052 165.24 22.812H165.114C165.15 23.028 165.18 23.286 165.204 23.586C165.228 23.874 165.24 24.132 165.24 24.36V28.32H163.332V14.298H164.88L165.15 15.594H165.24C165.432 15.33 165.66 15.084 165.924 14.856C166.188 14.628 166.506 14.448 166.878 14.316C167.25 14.184 167.682 14.118 168.174 14.118ZM167.724 15.684C167.124 15.684 166.644 15.804 166.284 16.044C165.924 16.272 165.66 16.62 165.492 17.088C165.336 17.544 165.252 18.126 165.24 18.834V19.122C165.24 19.866 165.318 20.502 165.474 21.03C165.63 21.546 165.888 21.942 166.248 22.218C166.62 22.482 167.124 22.614 167.76 22.614C168.3 22.614 168.738 22.47 169.074 22.182C169.422 21.882 169.68 21.468 169.848 20.94C170.016 20.412 170.1 19.8 170.1 19.104C170.1 18.048 169.908 17.214 169.524 16.602C169.14 15.99 168.54 15.684 167.724 15.684Z" fill="#AAAAAA"/>
</svg>
