<svg width="81" height="83" viewBox="0 0 81 83" fill="none" xmlns="http://www.w3.org/2000/svg">
<g clip-path="url(#clip0_1089_7819)">
<path d="M40.4487 38.5886C39.7435 33.1156 34.7351 29.2506 29.2621 29.9558C23.7891 30.661 19.9241 35.6695 20.6293 41.1424C21.3346 46.6154 26.343 50.4804 31.8159 49.7752C37.2889 49.07 41.1539 44.0616 40.4487 38.5886Z" fill="#D49100"/>
<path d="M33.0136 48.1377C38.3009 46.5582 41.3068 40.9916 39.7273 35.7042C38.1478 30.4169 32.5811 27.4111 27.2938 28.9906C22.0065 30.57 19.0006 36.1367 20.5801 41.424C22.1596 46.7114 27.7263 49.7172 33.0136 48.1377Z" fill="#FFC60B"/>
<path d="M32.2728 45.6576C36.1903 44.4873 38.4174 40.3628 37.2472 36.4452C36.0769 32.5277 31.9523 30.3006 28.0348 31.4708C24.1172 32.6411 21.8901 36.7657 23.0604 40.6832C24.2307 44.6008 28.3552 46.8279 32.2728 45.6576Z" fill="#E89F00"/>
<path d="M28.317 32.4163C30.117 31.8769 32.0548 32.0425 33.7372 32.8795C35.4197 33.7164 36.7206 35.1621 37.3762 36.9232C37.3411 36.7603 37.3 36.6004 37.2531 36.4433C36.9908 35.4932 36.5415 34.605 35.9315 33.8308C35.3215 33.0566 34.5631 32.4119 33.7007 31.9346C32.8384 31.4572 31.8894 31.1568 30.9095 31.0509C29.9296 30.945 28.9383 31.0358 27.9939 31.3179C27.0495 31.6001 26.1709 32.0679 25.4096 32.6939C24.6484 33.3199 24.0197 34.0916 23.5605 34.9638C23.1012 35.8359 22.8207 36.7909 22.7353 37.7729C22.65 38.7548 22.7614 39.7439 23.0632 40.6822C23.1105 40.8403 23.1559 40.9922 23.2235 41.151C22.8069 39.3206 23.1012 37.4003 24.0468 35.7786C24.9924 34.157 26.5188 32.9552 28.317 32.4163Z" fill="#D49100"/>
<path d="M53.8974 28.5738C59.1847 26.9943 62.1906 21.4276 60.6111 16.1403C59.0316 10.8529 53.4649 7.84711 48.1776 9.42659C42.8902 11.0061 39.8844 16.5727 41.4639 21.8601C43.0434 27.1474 48.6101 30.1532 53.8974 28.5738Z" fill="#D49100"/>
<path d="M56.952 25.4455C61.2324 21.9629 61.8791 15.6697 58.3965 11.3893C54.9139 7.10886 48.6207 6.46212 44.3402 9.94475C40.0598 13.4274 39.4131 19.7206 42.8957 24.001C46.3783 28.2814 52.6715 28.9282 56.952 25.4455Z" fill="#FFC60B"/>
<path d="M55.3184 23.4379C58.4899 20.8575 58.9691 16.1947 56.3887 13.0232C53.8083 9.8517 49.1455 9.37251 45.974 11.9529C42.8025 14.5333 42.3233 19.1961 44.9037 22.3676C47.4841 25.5391 52.1469 26.0183 55.3184 23.4379Z" fill="#E89F00"/>
<path d="M48.8119 11.5499C50.6111 11.0124 52.5474 11.1786 54.2286 12.015C55.9099 12.8513 57.2105 14.2953 57.8671 16.0546C57.8199 15.8965 57.7931 15.739 57.744 15.5747C57.1507 13.7303 55.8584 12.1918 54.144 11.2891C52.4297 10.3864 50.4299 10.1915 48.5734 10.746C46.717 11.3006 45.1518 12.5605 44.2135 14.2556C43.2752 15.9507 43.0385 17.946 43.5541 19.8136C43.6023 19.9749 43.6468 20.1237 43.7144 20.2824C43.2986 18.4518 43.5937 16.5316 44.5401 14.9104C45.4865 13.2891 47.0134 12.088 48.8119 11.5499Z" fill="#D49100"/>
<path d="M68.6145 27.7836L11.8365 44.7449C11.0191 44.9891 10.2578 45.3919 9.59619 45.9303C8.93454 46.4688 8.38547 47.1324 7.98035 47.8831C7.57522 48.6338 7.32198 49.457 7.23509 50.3056C7.1482 51.1543 7.22936 52.0117 7.47394 52.8289L21.4715 99.6862C21.2778 99.0368 21.3425 98.3378 21.652 97.735C21.9615 97.1322 22.4919 96.6723 23.1324 96.4513L83.7238 78.3509C85.374 77.858 86.7608 76.7296 87.5791 75.2142C88.3974 73.6987 88.5802 71.9202 88.0872 70.27L76.6995 32.1493C76.2062 30.4982 75.0773 29.1107 73.5611 28.292C72.0449 27.4733 70.2655 27.2904 68.6145 27.7836Z" fill="#00AEEF"/>
<path d="M79.3162 76.7095L75.2548 77.9227C75.1643 77.9566 75.0678 77.9715 74.9713 77.9665C74.8747 77.9615 74.7803 77.9368 74.6937 77.8938C74.6072 77.8507 74.5304 77.7904 74.4681 77.7165C74.4059 77.6425 74.3595 77.5566 74.3318 77.464C74.3041 77.3714 74.2958 77.2741 74.3073 77.1781C74.3188 77.0821 74.3499 76.9896 74.3987 76.9061C74.4475 76.8227 74.5129 76.7502 74.5908 76.6931C74.6688 76.6359 74.7577 76.5955 74.852 76.5741L78.8823 75.3701C79.0627 75.3154 79.2574 75.334 79.4241 75.4221C79.5908 75.5102 79.716 75.6605 79.7724 75.8404C79.8002 75.9274 79.8104 76.0191 79.8025 76.1101C79.7945 76.201 79.7686 76.2895 79.7261 76.3704C79.6837 76.4513 79.6256 76.5229 79.5552 76.5811C79.4848 76.6393 79.4036 76.683 79.3162 76.7095ZM71.1935 79.136L67.1601 80.3409C67.0695 80.3747 66.973 80.3897 66.8765 80.3847C66.78 80.3797 66.6855 80.3549 66.599 80.3119C66.5124 80.2689 66.4356 80.2085 66.3734 80.1346C66.3111 80.0607 66.2647 79.9747 66.237 79.8821C66.2094 79.7895 66.201 79.6922 66.2125 79.5963C66.224 79.5003 66.2552 79.4077 66.3039 79.3243C66.3527 79.2408 66.4181 79.1683 66.4961 79.1112C66.5741 79.0541 66.6629 79.0136 66.7572 78.9923L70.803 77.7837C70.8936 77.7498 70.9901 77.7349 71.0866 77.7399C71.1831 77.7449 71.2776 77.7696 71.3641 77.8126C71.4507 77.8557 71.5275 77.916 71.5897 77.9899C71.652 78.0639 71.6984 78.1498 71.7261 78.2424C71.7537 78.335 71.7621 78.4323 71.7506 78.5283C71.7391 78.6242 71.7079 78.7168 71.6592 78.8003C71.6104 78.8837 71.545 78.9562 71.467 79.0133C71.389 79.0705 71.3002 79.1109 71.2059 79.1323L71.1935 79.136ZM63.0987 81.5541L59.0684 82.7581C58.9779 82.792 58.8814 82.8069 58.7849 82.8019C58.6883 82.7969 58.5939 82.7721 58.5073 82.7291C58.4208 82.6861 58.344 82.6257 58.2817 82.5518C58.2194 82.4779 58.173 82.392 58.1454 82.2993C58.1177 82.2067 58.1094 82.1094 58.1209 82.0135C58.1324 81.9175 58.1635 81.8249 58.2123 81.7415C58.2611 81.658 58.3265 81.5855 58.4044 81.5284C58.4824 81.4713 58.5713 81.4308 58.6655 81.4095L62.6959 80.2055C62.7864 80.1716 62.8829 80.1567 62.9794 80.1617C63.076 80.1667 63.1704 80.1915 63.257 80.2345C63.3435 80.2775 63.4203 80.3378 63.4826 80.4118C63.5448 80.4857 63.5912 80.5716 63.6189 80.6642C63.6466 80.7569 63.6549 80.8542 63.6434 80.9501C63.6319 81.0461 63.6008 81.1387 63.552 81.2221C63.5032 81.3055 63.4378 81.3781 63.3599 81.4352C63.2819 81.4923 63.193 81.5328 63.0987 81.5541ZM55.004 83.9723L50.9706 85.1772C50.88 85.211 50.7835 85.2259 50.687 85.2209C50.5905 85.216 50.496 85.1912 50.4095 85.1482C50.3229 85.1052 50.2461 85.0448 50.1839 84.9709C50.1216 84.897 50.0752 84.811 50.0475 84.7184C50.0199 84.6258 50.0115 84.5285 50.023 84.4325C50.0345 84.3366 50.0656 84.244 50.1144 84.1605C50.1632 84.0771 50.2286 84.0046 50.3066 83.9475C50.3845 83.8904 50.4734 83.8499 50.5677 83.8285L54.6135 82.6199C54.704 82.5861 54.8006 82.5712 54.8971 82.5761C54.9936 82.5811 55.0881 82.6059 55.1746 82.6489C55.2612 82.6919 55.338 82.7523 55.4002 82.8262C55.4625 82.9001 55.5089 82.9861 55.5366 83.0787C55.5642 83.1713 55.5726 83.2686 55.5611 83.3646C55.5495 83.4605 55.5184 83.5531 55.4697 83.6365C55.4209 83.72 55.3555 83.7925 55.2775 83.8496C55.1995 83.9067 55.1107 83.9472 55.0164 83.9685L55.004 83.9723ZM46.9092 86.3904L42.8758 87.5953C42.7853 87.6292 42.6888 87.6441 42.5922 87.6391C42.4957 87.6341 42.4012 87.6093 42.3147 87.5663C42.2281 87.5233 42.1514 87.463 42.0891 87.389C42.0268 87.3151 41.9804 87.2292 41.9528 87.1365C41.9251 87.0439 41.9168 86.9466 41.9283 86.8507C41.9398 86.7547 41.9709 86.6621 42.0197 86.5787C42.0684 86.4952 42.1338 86.4227 42.2118 86.3656C42.2898 86.3085 42.3787 86.268 42.4729 86.2467L46.5188 85.0381C46.6093 85.0042 46.7058 84.9893 46.8023 84.9943C46.8989 84.9993 46.9933 85.024 47.0799 85.0671C47.1664 85.1101 47.2432 85.1704 47.3055 85.2443C47.3677 85.3183 47.4141 85.4042 47.4418 85.4968C47.4695 85.5894 47.4778 85.6867 47.4663 85.7827C47.4548 85.8787 47.4237 85.9712 47.3749 86.0547C47.3261 86.1381 47.2607 86.2107 47.1828 86.2678C47.1048 86.3249 47.0159 86.3654 46.9216 86.3867L46.9092 86.3904ZM38.8269 88.8048L34.7811 90.0134C34.6905 90.0473 34.594 90.0622 34.4975 90.0572C34.401 90.0522 34.3065 90.0275 34.2199 89.9845C34.1334 89.9414 34.0566 89.8811 33.9943 89.8072C33.9321 89.7332 33.8857 89.6473 33.858 89.5547C33.8303 89.4621 33.822 89.3648 33.8335 89.2688C33.845 89.1728 33.8761 89.0803 33.9249 88.9968C33.9737 88.9134 34.0391 88.8409 34.1171 88.7837C34.195 88.7266 34.2839 88.6862 34.3782 88.6648L38.424 87.4562C38.5145 87.4223 38.6111 87.4074 38.7076 87.4124C38.8041 87.4174 38.8986 87.4422 38.9851 87.4852C39.0717 87.5282 39.1485 87.5886 39.2107 87.6625C39.273 87.7364 39.3194 87.8223 39.347 87.915C39.3747 88.0076 39.383 88.1049 39.3715 88.2008C39.36 88.2968 39.3289 88.3894 39.2802 88.4728C39.2314 88.5563 39.166 88.6288 39.088 88.6859C39.01 88.743 38.9211 88.7835 38.8269 88.8048ZM30.7321 91.223L26.7018 92.4269C26.6113 92.4608 26.5148 92.4757 26.4182 92.4707C26.3217 92.4657 26.2272 92.441 26.1407 92.398C26.0541 92.3549 25.9773 92.2946 25.9151 92.2207C25.8528 92.1467 25.8064 92.0608 25.7788 91.9682C25.7511 91.8756 25.7428 91.7783 25.7543 91.6823C25.7658 91.5863 25.7969 91.4938 25.8457 91.4103C25.8944 91.3269 25.9598 91.2544 26.0378 91.1973C26.1158 91.1401 26.2047 91.0997 26.2989 91.0783L30.3293 89.8743C30.4198 89.8405 30.5163 89.8256 30.6128 89.8306C30.7093 89.8356 30.8038 89.8603 30.8904 89.9033C30.9769 89.9463 31.0537 90.0067 31.116 90.0806C31.1782 90.1545 31.2246 90.2405 31.2523 90.3331C31.28 90.4257 31.2883 90.523 31.2768 90.619C31.2653 90.7149 31.2342 90.8075 31.1854 90.891C31.1366 90.9744 31.0712 91.0469 30.9932 91.104C30.9153 91.1612 30.8264 91.2016 30.7321 91.223ZM82.7559 74.3312C82.6133 74.374 82.4608 74.3707 82.3203 74.3216C82.1797 74.2725 82.0583 74.1801 81.9734 74.0578C81.8885 73.9355 81.8445 73.7895 81.8477 73.6406C81.8509 73.4918 81.9011 73.3477 81.9911 73.2292C82.7589 72.2164 83.1893 70.9882 83.2215 69.7177C83.2191 69.6221 83.2362 69.527 83.2716 69.4383C83.3071 69.3495 83.3603 69.2689 83.4279 69.2013C83.4954 69.1337 83.5761 69.0805 83.6649 69.045C83.7536 69.0095 83.8487 68.9925 83.9442 68.9948C84.0398 68.9972 84.1339 69.019 84.2208 69.0589C84.3077 69.0987 84.3856 69.1558 84.4497 69.2267C84.5138 69.2976 84.5629 69.3808 84.5939 69.4712C84.6249 69.5617 84.6372 69.6575 84.6301 69.7528C84.5903 71.3191 84.06 72.8335 83.1138 74.0824C83.0201 74.2052 82.8891 74.2941 82.7404 74.3358L82.7559 74.3312ZM83.241 66.3012C83.0623 66.3546 82.8697 66.335 82.7054 66.2468C82.5411 66.1585 82.4184 66.0088 82.3642 65.8303L81.1574 61.7907C81.1039 61.6114 81.1237 61.4183 81.2126 61.2537C81.3015 61.089 81.4521 60.9665 81.6314 60.9129C81.8106 60.8594 82.0038 60.8792 82.1684 60.9681C82.333 61.057 82.4556 61.2076 82.5091 61.3869L83.7187 65.4358C83.7451 65.5257 83.7534 65.62 83.7429 65.7132C83.7325 65.8064 83.7036 65.8965 83.658 65.9784C83.6123 66.0602 83.5508 66.1322 83.477 66.19C83.4032 66.2478 83.3187 66.2903 83.2283 66.3151L83.241 66.3012ZM75.9866 42.0169C75.8079 42.0703 75.6153 42.0507 75.451 41.9625C75.2866 41.8742 75.164 41.7245 75.1098 41.546L73.903 37.5064C73.8495 37.3272 73.8693 37.134 73.9582 36.9694C74.0471 36.8048 74.1977 36.6822 74.377 36.6287C74.5562 36.5751 74.7494 36.595 74.914 36.6839C75.0786 36.7727 75.2012 36.9234 75.2547 37.1026L76.4642 41.1515C76.4907 41.2415 76.4989 41.3358 76.4885 41.4289C76.4781 41.5221 76.4492 41.6122 76.4036 41.6941C76.3579 41.776 76.2964 41.8479 76.2226 41.9057C76.1488 41.9635 76.0643 42.0061 75.9739 42.0308L75.9866 42.0169ZM72.6893 34.3705C72.5729 34.4059 72.4494 34.4105 72.3307 34.3838C72.212 34.3571 72.1023 34.3 72.0123 34.2182C71.0701 33.3661 69.885 32.8298 68.623 32.6845C68.4488 32.6508 68.2937 32.5527 68.1886 32.4098C68.0835 32.2669 68.0362 32.0897 68.0559 31.9134C68.0757 31.7371 68.1611 31.5747 68.2952 31.4586C68.4293 31.3425 68.6023 31.2812 68.7796 31.2869C70.3365 31.4662 71.7985 32.1274 72.9613 33.1783C73.0541 33.2618 73.123 33.3686 73.1608 33.4876C73.1986 33.6066 73.2039 33.7336 73.1763 33.8554C73.1487 33.9772 73.0891 34.0894 73.0037 34.1805C72.9182 34.2716 72.81 34.3383 72.6902 34.3736L72.6893 34.3705ZM64.7653 33.3472L60.7195 34.5558C60.6289 34.5897 60.5324 34.6046 60.4359 34.5996C60.3394 34.5946 60.2449 34.5698 60.1584 34.5268C60.0718 34.4838 59.995 34.4235 59.9328 34.3495C59.8705 34.2756 59.8241 34.1897 59.7964 34.0971C59.7688 34.0045 59.7604 33.9072 59.7719 33.8112C59.7834 33.7152 59.8146 33.6226 59.8633 33.5392C59.9121 33.4558 59.9775 33.3832 60.0555 33.3261C60.1335 33.269 60.2223 33.2285 60.3166 33.2072L64.3624 31.9986C64.453 31.9647 64.5495 31.9498 64.646 31.9548C64.7425 31.9598 64.837 31.9846 64.9235 32.0276C65.0101 32.0706 65.0869 32.1309 65.1491 32.2049C65.2114 32.2788 65.2578 32.3647 65.2855 32.4573C65.3131 32.5499 65.3215 32.6472 65.31 32.7432C65.2985 32.8392 65.2674 32.9318 65.2186 33.0152C65.1698 33.0986 65.1044 33.1712 65.0264 33.2283C64.9484 33.2854 64.8596 33.3259 64.7653 33.3472ZM56.6705 35.7653L52.6402 36.9693C52.5497 37.0032 52.4532 37.0181 52.3566 37.0131C52.2601 37.0081 52.1657 36.9834 52.0791 36.9403C51.9926 36.8973 51.9158 36.837 51.8535 36.763C51.7912 36.6891 51.7448 36.6032 51.7172 36.5106C51.6895 36.418 51.6812 36.3207 51.6927 36.2247C51.7042 36.1287 51.7353 36.0362 51.7841 35.9527C51.8328 35.8693 51.8983 35.7967 51.9762 35.7396C52.0542 35.6825 52.1431 35.642 52.2373 35.6207L56.2677 34.4167C56.3582 34.3829 56.4547 34.368 56.5512 34.3729C56.6478 34.3779 56.7422 34.4027 56.8288 34.4457C56.9153 34.4887 56.9921 34.5491 57.0544 34.623C57.1166 34.6969 57.163 34.7829 57.1907 34.8755C57.2184 34.9681 57.2267 35.0654 57.2152 35.1614C57.2037 35.2573 57.1726 35.3499 57.1238 35.4333C57.075 35.5168 57.0096 35.5893 56.9317 35.6464C56.8537 35.7035 56.7648 35.744 56.6705 35.7653ZM48.5758 38.1835L44.53 39.3921C44.4394 39.426 44.3429 39.4409 44.2464 39.4359C44.1499 39.4309 44.0554 39.4061 43.9688 39.3631C43.8823 39.3201 43.8055 39.2597 43.7432 39.1858C43.681 39.1119 43.6346 39.026 43.6069 38.9333C43.5793 38.8407 43.5709 38.7434 43.5824 38.6475C43.5939 38.5515 43.625 38.4589 43.6738 38.3755C43.7226 38.292 43.788 38.2195 43.866 38.1624C43.9439 38.1053 44.0328 38.0648 44.1271 38.0435L48.1729 36.8349C48.2634 36.801 48.36 36.7861 48.4565 36.7911C48.553 36.7961 48.6475 36.8208 48.734 36.8638C48.8206 36.9069 48.8974 36.9672 48.9596 37.0411C49.0219 37.1151 49.0683 37.201 49.096 37.2936C49.1236 37.3862 49.132 37.4835 49.1204 37.5795C49.1089 37.6755 49.0778 37.768 49.0291 37.8515C48.9803 37.9349 48.9149 38.0074 48.8369 38.0646C48.7589 38.1217 48.6701 38.1621 48.5758 38.1835ZM40.481 40.6016L36.4507 41.8056C36.3602 41.8395 36.2637 41.8544 36.1671 41.8494C36.0706 41.8444 35.9761 41.8196 35.8896 41.7766C35.803 41.7336 35.7263 41.6733 35.664 41.5993C35.6017 41.5254 35.5553 41.4395 35.5277 41.3469C35.5 41.2542 35.4917 41.1569 35.5032 41.061C35.5147 40.965 35.5458 40.8724 35.5946 40.789C35.6433 40.7055 35.7087 40.633 35.7867 40.5759C35.8647 40.5188 35.9536 40.4783 36.0478 40.457L40.0782 39.253C40.1687 39.2191 40.2652 39.2042 40.3617 39.2092C40.4582 39.2142 40.5527 39.239 40.6393 39.282C40.7258 39.325 40.8026 39.3854 40.8649 39.4593C40.9271 39.5332 40.9735 39.6191 41.0012 39.7117C41.0289 39.8044 41.0372 39.9017 41.0257 39.9976C41.0142 40.0936 40.9831 40.1862 40.9343 40.2696C40.8855 40.3531 40.8201 40.4256 40.7421 40.4827C40.6642 40.5398 40.5753 40.5803 40.481 40.6016ZM32.3863 43.0198L28.356 44.2237C28.2654 44.2576 28.1689 44.2725 28.0724 44.2675C27.9759 44.2625 27.8814 44.2378 27.7948 44.1948C27.7083 44.1517 27.6315 44.0914 27.5692 44.0175C27.507 43.9435 27.4606 43.8576 27.4329 43.765C27.4052 43.6724 27.3969 43.5751 27.4084 43.4791C27.4199 43.3831 27.451 43.2906 27.4998 43.2071C27.5486 43.1237 27.614 43.0512 27.692 42.994C27.7699 42.9369 27.8588 42.8965 27.9531 42.8751L31.9834 41.6711C32.0739 41.6373 32.1705 41.6224 32.267 41.6274C32.3635 41.6323 32.458 41.6571 32.5445 41.7001C32.6311 41.7431 32.7079 41.8035 32.7701 41.8774C32.8324 41.9513 32.8788 42.0373 32.9064 42.1299C32.9341 42.2225 32.9424 42.3198 32.9309 42.4158C32.9194 42.5117 32.8883 42.6043 32.8395 42.6878C32.7908 42.7712 32.7254 42.8437 32.6474 42.9008C32.5694 42.9579 32.4805 42.9984 32.3863 43.0198ZM24.2915 45.4379L20.2612 46.6419C20.1707 46.6757 20.0742 46.6906 19.9776 46.6857C19.8811 46.6807 19.7866 46.6559 19.7001 46.6129C19.6135 46.5699 19.5367 46.5095 19.4745 46.4356C19.4122 46.3617 19.3658 46.2757 19.3382 46.1831C19.3105 46.0905 19.3022 45.9932 19.3137 45.8973C19.3252 45.8013 19.3563 45.7087 19.4051 45.6253C19.4538 45.5418 19.5192 45.4693 19.5972 45.4122C19.6752 45.3551 19.7641 45.3146 19.8583 45.2933L23.8887 44.0893C23.9792 44.0554 24.0757 44.0405 24.1722 44.0455C24.2687 44.0505 24.3632 44.0753 24.4498 44.1183C24.5363 44.1613 24.6131 44.2216 24.6754 44.2956C24.7376 44.3695 24.784 44.4554 24.8117 44.548C24.8394 44.6406 24.8477 44.7379 24.8362 44.8339C24.8247 44.9299 24.7936 45.0224 24.7448 45.1059C24.696 45.1893 24.6306 45.2619 24.5526 45.319C24.4747 45.3761 24.3858 45.4166 24.2915 45.4379ZM16.1968 47.856L12.1664 49.06C12.0759 49.0939 11.9794 49.1088 11.8829 49.1038C11.7863 49.0988 11.6919 49.074 11.6053 49.031C11.5188 48.988 11.442 48.9277 11.3797 48.8537C11.3175 48.7798 11.2711 48.6939 11.2434 48.6013C11.2157 48.5087 11.2074 48.4114 11.2189 48.3154C11.2304 48.2194 11.2615 48.1268 11.3103 48.0434C11.3591 47.96 11.4245 47.8874 11.5024 47.8303C11.5804 47.7732 11.6693 47.7327 11.7636 47.7114L15.7939 46.5074C15.8844 46.4736 15.9809 46.4586 16.0775 46.4636C16.174 46.4686 16.2685 46.4934 16.355 46.5364C16.4416 46.5794 16.5183 46.6398 16.5806 46.7137C16.6429 46.7876 16.6893 46.8736 16.7169 46.9662C16.7446 47.0588 16.7529 47.1561 16.7414 47.252C16.7299 47.348 16.6988 47.4406 16.65 47.524C16.6013 47.6075 16.5359 47.68 16.4579 47.7371C16.3799 47.7942 16.291 47.8347 16.1968 47.856Z" fill="#8CE0FF"/>
<path d="M69.3954 47.7953L81.8894 44.063C82.6402 43.8387 83.4492 43.9219 84.1386 44.2941C84.828 44.6664 85.3413 45.2973 85.5655 46.048L87.8753 53.78C88.0996 54.5307 88.0164 55.3397 87.6442 56.0291C87.2719 56.7185 86.6411 57.2318 85.8904 57.4561L73.3963 61.1884C71.9985 61.606 70.4921 61.4512 69.2084 60.758C67.9248 60.0649 66.969 58.8902 66.5515 57.4924L65.7059 54.6619C65.2883 53.2641 65.4432 51.7576 66.1363 50.474C66.8294 49.1903 68.0041 48.2346 69.4019 47.817L69.3954 47.7953Z" fill="#0091C7"/>
<path d="M75.7055 56.382C77.4554 55.8592 78.4502 54.0169 77.9275 52.267C77.4047 50.5171 75.5624 49.5223 73.8125 50.0451C72.0626 50.5678 71.0678 52.4101 71.5906 54.16C72.1133 55.9099 73.9556 56.9047 75.7055 56.382Z" fill="#0089BD"/>
<path d="M77.8407 52.1167C77.6051 50.3057 75.946 49.0286 74.1349 49.2642C72.3239 49.4998 71.0468 51.1589 71.2824 52.97C71.518 54.781 73.1771 56.0581 74.9882 55.8225C76.7992 55.5869 78.0763 53.9278 77.8407 52.1167Z" fill="#00AEEF"/>
<path d="M83.7219 78.3449L23.1306 96.4453C22.7685 96.5706 22.4384 96.7741 22.1639 97.0414C22.0957 97.106 22.0317 97.1748 21.9721 97.2473L21.9392 97.2841C21.8705 97.3689 21.8081 97.4586 21.7526 97.5526L21.7278 97.5938C21.6777 97.6777 21.6326 97.7645 21.5927 97.8537L21.5697 97.9011C21.5275 98.0023 21.4908 98.1057 21.4596 98.2108L21.4512 98.2505C21.4247 98.344 21.4046 98.4391 21.3911 98.5353L21.3817 98.6056C21.3661 98.7142 21.3582 98.8237 21.3581 98.9335C21.3581 98.9335 21.3636 98.9521 21.3664 98.9614C21.3671 99.062 21.3746 99.1624 21.3887 99.262C21.397 99.2899 21.4053 99.3178 21.4127 99.3426C21.4316 99.4546 21.4568 99.5655 21.4883 99.6746C21.6848 100.341 22.1375 100.903 22.7473 101.237C23.3572 101.571 24.0744 101.649 24.7419 101.455L81.6315 84.4603C84.2397 83.6812 86.4315 81.8979 87.7248 79.5027C89.0181 77.1075 89.3069 74.2967 88.5278 71.6886L88.1009 70.2594C88.3454 71.0778 88.426 71.9364 88.3381 72.786C88.2503 73.6356 87.9957 74.4596 87.5889 75.2107C87.1822 75.9617 86.6312 76.6252 85.9676 77.163C85.3041 77.7009 84.5409 78.1025 83.7219 78.3449Z" fill="#0091C7"/>
</g>
<defs>
<clipPath id="clip0_1089_7819">
<rect width="82.8321" height="82.8321" fill="white" transform="translate(-4.39258 23.7091) rotate(-16.6324)"/>
</clipPath>
</defs>
</svg>
