<svg width="966" height="176" viewBox="0 0 966 176" fill="none" xmlns="http://www.w3.org/2000/svg">
  <mask id="mask0_1078_6810" style="mask-type:alpha" maskUnits="userSpaceOnUse" x="0" y="0" width="966" height="176">
    <rect width="966" height="175.274" rx="11.9505" fill="#EEF4FF" />
  </mask>
  <g mask="url(#mask0_1078_6810)">
    <g opacity="0.5">
      <path d="M867.005 162.622C920.35 81.0371 845.438 35.425 801.313 22.8171C718.1 1.40654 740.49 54.8369 664.702 67.2401C588.914 79.6434 654.393 110.051 655.873 155.244C657.353 200.437 567.349 155.888 572.079 238.921C576.809 321.955 724.105 362.457 692.228 249.553C660.35 136.649 800.324 264.603 867.005 162.622Z" stroke="#F4F4F4" stroke-width="1.99175" />
      <path d="M835.044 164.618C876.104 101.759 818.486 66.6428 784.544 56.9423C720.535 40.4712 737.745 81.6232 679.439 91.1971C621.132 100.771 671.497 124.178 672.623 158.989C673.75 193.801 604.523 159.508 608.14 223.469C611.757 287.429 725.06 318.59 700.567 231.627C676.073 144.665 783.72 243.192 835.044 164.618Z" stroke="#F4F4F4" stroke-width="1.99175" />
      <path d="M896.62 160.687C961.388 61.5676 870.476 6.17974 816.924 -9.12431C715.93 -35.1113 743.092 29.7875 651.102 44.8741C559.112 59.9606 638.578 96.8818 640.363 151.779C642.147 206.677 532.918 152.584 538.637 253.448C544.357 354.312 723.125 403.474 684.464 266.332C645.802 129.19 815.66 284.586 896.62 160.687Z" stroke="#F4F4F4" stroke-width="1.99175" />
      <path d="M921.471 159.168C995.777 45.5579 891.408 -17.9722 829.935 -35.536C714.006 -65.3637 745.205 9.04753 639.624 26.3108C534.043 43.574 625.267 85.9294 627.335 148.866C629.402 211.802 504.01 149.751 510.61 265.386C517.21 381.022 722.418 437.445 677.994 280.208C633.57 122.971 828.588 301.18 921.471 159.168Z" stroke="#F4F4F4" stroke-width="1.99175" />
      <path d="M957.024 156.786C1045.07 22.0028 921.51 -53.297 848.724 -74.099C711.459 -109.42 748.368 -21.1795 623.334 -0.653418C498.3 19.8727 606.305 70.0644 608.723 144.709C611.141 219.354 462.685 145.819 470.445 282.965C478.205 420.112 721.178 486.934 668.649 300.464C616.119 113.994 846.967 325.266 957.024 156.786Z" stroke="#F4F4F4" stroke-width="1.99175" />
      <path d="M998.513 153.959C1102.61 -5.6368 956.674 -94.7 870.69 -119.282C708.534 -161.014 752.09 -56.583 604.353 -32.2145C456.616 -7.84591 584.193 51.5053 587.007 139.863C589.821 228.22 414.465 141.259 423.555 303.598C432.646 465.936 719.676 544.896 657.72 324.198C595.764 103.5 868.386 353.454 998.513 153.959Z" stroke="#F4F4F4" stroke-width="1.99175" />
    </g>
    <mask id="mask1_1078_6810" style="mask-type:alpha" maskUnits="userSpaceOnUse" x="780" y="-3" width="187" height="179">
      <path d="M780 6.85448C780 1.48833 784.35 -2.86182 789.716 -2.86182H956.513C961.879 -2.86182 966.229 1.48831 966.229 6.85447V165.554C966.229 170.92 961.879 175.27 956.513 175.27H789.716C784.35 175.27 780 170.92 780 165.554V6.85448Z" fill="#FF7F4D" />
    </mask>
    <g mask="url(#mask1_1078_6810)">
      <path d="M861.566 189.563C864.217 186.221 865.679 183.439 866.459 181.231L866.989 181.56C869.786 169.045 864.409 156.871 864.409 156.871L846.614 151.887C846.614 151.887 843.872 160.469 841.63 165.754C838.142 170.455 832.494 171.951 832.494 171.951L829.045 194.712C829.042 194.715 853.926 199.199 861.566 189.563Z" fill="#E54728" />
      <path d="M887.23 133.163C898.679 139.819 910.112 143.173 923.331 142.345L960.209 123.901C964.904 110.664 968.538 96.7781 967.88 82.7489C967.222 68.7198 961.79 54.4316 950.951 45.5023C945.836 41.289 939.734 38.4009 934.655 34.1419C927.471 28.1159 922.454 19.4486 914.201 14.9946C901.11 7.92971 882.779 10.9305 876.506 24.7617C866.986 23.7655 855.33 33.1731 863.23 59.0197C865.393 66.0998 868.966 75.5165 867.793 82.8251C864.409 103.944 871.8 124.194 887.23 133.163Z" fill="#2E0031" />
      <path d="M970.852 129.092C966.523 97.9539 940.81 92.5433 940.81 92.5433L887.98 94.4108C887.98 94.4108 874.774 94.9805 865.055 107.029C855.337 119.078 850.478 123.938 850.103 135.152C849.728 146.366 856.458 162.439 859.447 168.045C862.438 173.651 860.193 188.603 860.193 188.603C860.193 188.603 900.404 227.105 960.71 218.629C958.964 213.472 957.124 208.003 956.612 203.567C969.715 183.75 974.456 155.039 970.852 129.092Z" fill="#FF572F" />
      <path d="M858.825 186.967C858.721 187.448 858.968 187.954 859.465 188.091C859.921 188.216 860.485 187.938 860.589 187.451C861.512 183.186 861.737 178.781 861.244 174.445C860.744 170.04 859.562 165.754 857.716 161.723C856.698 159.502 855.471 157.382 854.054 155.389C853.768 154.987 853.256 154.795 852.805 155.06C852.409 155.292 852.189 155.907 852.476 156.309C854.916 159.737 856.777 163.548 857.987 167.575C859.193 171.582 859.763 175.758 859.659 179.941C859.602 182.308 859.324 184.654 858.825 186.967Z" fill="#180205" />
      <path d="M925.233 54.4165C925.732 44.5732 917.135 45.9442 914.89 50.5535C914.89 50.5535 904.922 50.9283 898.817 41.7065C892.711 32.4877 882.95 31.8632 878.841 37.222C878.841 37.222 872.653 36.1009 871.779 45.4445C870.907 54.7882 874.664 84.1931 893.595 83.8214C893.595 83.8214 893.461 91.0477 892.961 93.5398L887.977 94.4111C887.977 94.4111 891.852 106.296 910.53 106.996C933.83 107.868 940.807 92.5436 940.807 92.5436L927.1 89.3052C927.1 89.3052 917.882 77.0947 916.136 62.8919C916.136 62.8889 924.733 64.2598 925.233 54.4165Z" fill="#FFBEAE" />
      <path d="M928.764 104.582C932.273 103.019 935.527 100.911 938.403 98.3608C938.772 98.0318 938.738 97.4012 938.403 97.0691C938.037 96.7035 937.48 96.7401 937.111 97.0691C932.237 101.389 926.18 104.292 919.786 105.493C913.354 106.699 906.664 106.014 900.559 103.695C897.144 102.397 893.899 100.56 891.045 98.2816C890.661 97.9739 890.128 97.9039 889.753 98.2816C889.433 98.6015 889.366 99.2657 889.753 99.5734C895.203 103.927 901.766 106.696 908.681 107.601C915.508 108.494 922.485 107.379 928.764 104.582Z" fill="#180205" />
      <path d="M926.487 170.161C927.13 167.755 927.776 165.348 928.419 162.941C929.442 159.121 930.463 155.304 931.487 151.483C931.721 150.606 931.956 149.732 932.19 148.854C932.495 147.718 930.731 147.23 930.427 148.367C929.784 150.773 929.138 153.18 928.495 155.587C927.471 159.407 926.451 163.225 925.427 167.045C925.193 167.922 924.958 168.797 924.723 169.674C924.419 170.813 926.183 171.298 926.487 170.161Z" fill="#180205" />
      <path d="M939.435 139.643L900.936 97.0316C900.936 97.0316 883.242 99.024 869.384 102.543C855.525 106.061 842.885 112.733 842.885 112.733C842.885 112.733 835.896 106.004 823.686 104.392C811.475 102.78 794.531 101.269 794.531 101.269L789.379 107.515L834.9 130.114L937.382 149.432L939.435 139.643Z" fill="#FCF4E6" />
      <path d="M881.5 163.565L939.435 151.891L900.449 105.234L850.084 116.094H840.006L786.555 107.034L823.561 151.891L866.173 161.698L881.5 163.565Z" fill="#0E6AC3" />
      <path d="M850.084 116.094H840.006L866.173 161.697L881.5 163.564L850.084 116.094Z" fill="#1058C1" />
      <path d="M870.657 156.873L878.63 163.564C878.63 163.564 887.352 159.399 891.09 155.253C891.09 155.253 884.61 150.732 883.614 139.767C882.618 128.803 877.259 129.549 874.767 130.795C872.275 132.041 872.899 135.779 869.408 136.526C865.92 137.272 852.713 128.303 846.855 130.67C840.999 133.038 842.37 139.889 846.108 144.252C849.849 148.611 858.572 155.167 870.657 156.873Z" fill="#FFBEAE" />
      <path d="M945.044 211.034C960.015 208.895 968.642 182.884 970.827 157.979C972.079 143.709 925.607 169.918 925.607 169.918C919.252 168.051 888.976 151.889 888.976 151.889C882.246 158.53 875.894 162.817 875.894 162.817C883.367 174.031 921.494 214.4 945.044 211.034Z" fill="#FF572F" />
      <path d="M928.879 170.648C928.784 170.608 929.049 170.719 928.879 170.648V170.648Z" fill="#180205" />
      <path d="M888.513 152.678C888.72 152.784 888.928 152.891 889.135 153.001C889.296 152.845 889.461 152.693 889.622 152.535C889.25 152.583 888.882 152.629 888.513 152.678Z" fill="#180205" />
      <path d="M889.135 153.001C888.927 152.895 888.72 152.788 888.513 152.679C888.882 152.63 889.25 152.584 889.622 152.535C889.46 152.694 889.296 152.843 889.135 153.001C890.143 153.525 891.154 154.053 892.166 154.573C895.139 156.112 898.119 157.641 901.101 159.162C904.858 161.075 908.62 162.976 912.398 164.852C915.968 166.625 919.551 168.383 923.164 170.068C925.586 171.198 928.026 172.383 930.558 173.252C930.725 173.31 930.896 173.364 931.07 173.416C932.2 173.751 932.681 171.987 931.557 171.652C930.649 171.384 929.772 171.012 928.898 170.65C928.891 170.647 928.888 170.647 928.882 170.644C928.788 170.604 929.05 170.714 928.882 170.644C928.876 170.641 928.876 170.641 928.87 170.638C928.806 170.61 928.739 170.583 928.675 170.555C928.511 170.485 928.346 170.415 928.185 170.345C927.865 170.208 927.548 170.068 927.231 169.925C926.512 169.605 925.799 169.279 925.086 168.95C921.58 167.332 918.11 165.638 914.649 163.926C910.844 162.047 907.054 160.136 903.27 158.211C900.157 156.627 897.046 155.033 893.942 153.428C892.464 152.663 890.999 151.862 889.506 151.128C889.485 151.119 889.464 151.107 889.445 151.094C889.08 150.905 888.638 150.942 888.336 151.238C884.592 154.927 880.571 158.366 876.297 161.419C876.013 161.623 875.727 161.824 875.437 162.022C875.047 162.287 874.822 162.839 875.108 163.271C876.726 165.693 878.597 167.957 880.485 170.172C883.2 173.352 886.048 176.42 888.982 179.399C892.461 182.936 896.065 186.352 899.794 189.621C903.724 193.066 907.797 196.353 912.044 199.397C916.081 202.288 920.288 204.969 924.73 207.196C928.648 209.161 932.794 210.83 937.117 211.638C941.071 212.375 945.257 212.439 949.017 210.842C953.477 208.951 956.865 205.167 959.457 201.185C962.753 196.122 965.014 190.388 966.775 184.633C968.801 178.013 970.144 171.195 971.046 164.334C971.268 162.641 971.46 160.941 971.625 159.238C971.674 158.747 971.171 158.324 970.711 158.324C970.178 158.324 969.846 158.744 969.797 159.238C969.136 166.053 968.021 172.831 966.321 179.467C964.795 185.429 962.817 191.345 959.914 196.792C957.657 201.03 954.698 205.283 950.683 207.887C948.901 209.045 947.116 209.785 944.992 210.117C944.947 210.124 944.758 210.151 944.742 210.154C944.764 210.151 944.782 210.148 944.803 210.148C944.752 210.154 944.739 210.157 944.742 210.154C944.669 210.163 944.593 210.172 944.52 210.181C944.289 210.209 944.057 210.23 943.825 210.248C943.372 210.285 942.915 210.303 942.458 210.309C941.531 210.322 940.605 210.276 939.685 210.181C939.466 210.16 939.25 210.133 939.033 210.105C938.957 210.096 938.939 210.093 938.936 210.093C938.933 210.093 938.939 210.093 938.936 210.093C938.933 210.093 938.914 210.09 938.838 210.078C938.707 210.06 938.573 210.038 938.442 210.017C937.967 209.941 937.492 209.855 937.02 209.758C936.011 209.551 935.015 209.295 934.028 209.002C931.971 208.393 929.955 207.616 928.078 206.772C923.722 204.81 919.597 202.358 915.642 199.683C911.435 196.838 907.417 193.721 903.538 190.443C899.733 187.226 896.062 183.85 892.516 180.353C889.424 177.303 886.42 174.159 883.541 170.906C882.368 169.581 881.217 168.237 880.096 166.866C879.617 166.281 879.145 165.69 878.682 165.093C878.658 165.063 878.584 164.965 878.569 164.947C878.588 164.971 878.606 164.996 878.627 165.02C878.575 164.95 878.563 164.935 878.569 164.947C878.542 164.913 878.517 164.88 878.49 164.843C878.383 164.703 878.277 164.566 878.173 164.426C877.987 164.179 877.801 163.929 877.619 163.676C877.463 163.463 877.317 163.244 877.165 163.028C876.897 163.216 876.626 163.405 876.354 163.588C876.464 163.171 876.574 162.753 876.683 162.339C876.839 162.574 877.006 162.799 877.165 163.028C879.983 161.059 882.658 158.854 885.238 156.593C886.566 155.442 887.864 154.235 889.135 153.001Z" fill="#180205" />
      <path d="M878.628 165.035C878.609 165.011 878.591 164.986 878.569 164.961C878.56 164.952 878.572 164.967 878.628 165.035Z" fill="#180205" />
      <path d="M876.354 163.606C876.625 163.423 876.897 163.234 877.165 163.045C877.003 162.817 876.839 162.588 876.683 162.357C876.571 162.771 876.461 163.189 876.354 163.606Z" fill="#180205" />
      <path d="M832.408 134.396C830.416 129.649 814.76 120.111 805.995 130.591C797.227 141.071 809.733 155.249 809.733 155.249L813.221 165.056C820.697 167.798 831.662 161.567 831.662 161.567L829.17 158.079C831.662 150.107 828.423 146.835 828.423 146.835C832.655 144.315 834.4 139.142 832.408 134.396Z" fill="#FFBEAE" />
      <path d="M841.627 165.757C841.627 165.757 834.138 162.363 831.908 159.265C831.908 159.265 825.179 163.064 811.475 163.564C811.475 163.564 816.21 188.234 829.045 194.714L841.627 165.757Z" fill="#E54728" />
      <path d="M916.858 54.916C916.937 52.7956 919.049 51.1018 921.123 51.3638C921.37 51.3942 921.58 51.1322 921.58 50.9068C921.58 50.6357 921.37 50.4803 921.123 50.4498C918.54 50.1238 916.042 52.3478 915.944 54.916C915.923 55.504 916.837 55.504 916.858 54.916Z" fill="#180205" />
      <path d="M895.712 57.6025C896.592 57.441 897.113 56.2559 896.875 54.9611C896.635 53.6664 895.727 52.7463 894.846 52.9078C893.966 53.0693 893.445 54.2544 893.683 55.5491C893.92 56.8469 894.831 57.7639 895.712 57.6025Z" fill="#180205" />
      <path d="M894.995 57.1589C895.338 57.1589 895.617 56.8806 895.617 56.5374C895.617 56.1942 895.338 55.9159 894.995 55.9159C894.652 55.9159 894.374 56.1942 894.374 56.5374C894.374 56.8806 894.652 57.1589 894.995 57.1589Z" fill="white" />
      <path d="M882.021 61.1471C882.859 60.8268 883.156 59.5696 882.686 58.339C882.215 57.1084 881.155 56.3704 880.317 56.6906C879.48 57.0109 879.182 58.2681 879.652 59.4987C880.123 60.7293 881.183 61.4673 882.021 61.1471Z" fill="#180205" />
      <path d="M881.225 60.8236C881.563 60.7596 881.785 60.4367 881.724 60.0985C881.661 59.7604 881.338 59.538 880.999 59.5989C880.661 59.6598 880.439 59.9858 880.5 60.324C880.561 60.6621 880.887 60.8876 881.225 60.8236Z" fill="white" />
      <path d="M892.138 49.1745C892.5 48.5256 893.094 48.029 893.813 47.8249C894.599 47.5994 895.434 47.7548 896.117 48.1966C896.61 48.5164 897.07 47.7274 896.577 47.4075C895.699 46.8378 894.578 46.655 893.57 46.9444C892.631 47.2125 891.821 47.8614 891.349 48.7145C891.062 49.2293 891.851 49.6893 892.138 49.1745Z" fill="#180205" />
      <path d="M876.903 53.9651C877.266 53.3162 877.86 52.8196 878.579 52.6155C879.365 52.3901 880.199 52.5455 880.882 52.9872C881.375 53.3071 881.835 52.518 881.342 52.1982C880.465 51.6285 879.343 51.4457 878.335 51.7351C877.397 52.0032 876.586 52.6521 876.114 53.5051C875.828 54.0169 876.617 54.48 876.903 53.9651Z" fill="#180205" />
      <path d="M886.161 64.9706C886.247 64.7968 886.323 64.6199 886.399 64.4461C886.228 64.4064 886.057 64.3576 885.887 64.2997C885.978 64.5254 886.07 64.748 886.161 64.9706Z" fill="#180205" />
      <path d="M885.643 65.18C886.6 65.5059 887.602 65.5699 888.595 65.4085C889.174 65.314 888.927 64.4336 888.351 64.528C887.693 64.6346 887.035 64.5981 886.396 64.4458C886.319 64.6224 886.243 64.7992 886.158 64.9698C886.066 64.7474 885.975 64.5219 885.884 64.2995C886.051 64.3574 886.222 64.4061 886.396 64.4458C887.178 62.6514 887.55 60.6985 887.437 58.7366C887.404 58.1517 886.49 58.1486 886.523 58.7366C886.636 60.729 886.249 62.7184 885.366 64.5097C885.235 64.7839 885.351 65.0825 885.643 65.18Z" fill="#180205" />
      <path d="M895.672 68.4251C896.047 67.9773 895.404 67.3284 895.026 67.7793C893.576 69.5036 891.187 70.2957 889 69.726C888.43 69.5767 888.187 70.4602 888.756 70.6065C891.236 71.2523 894.015 70.3932 895.672 68.4251Z" fill="#180205" />
      <path d="M907.581 78.092C902.307 83.5758 893.594 83.8225 893.594 83.8225L893.347 89.879C905.92 87.9353 907.581 78.092 907.581 78.092Z" fill="#180205" />
      <path d="M823.872 147.009C821.666 147.561 819.342 147.515 817.148 146.927C816.012 146.622 815.525 148.386 816.664 148.691C820.786 149.797 825.395 149.175 828.923 146.708C832.101 144.487 834.203 140.953 834.084 137.007C834.017 134.796 833.273 132.691 831.878 130.969C831.567 130.585 830.909 130.646 830.586 130.969C830.209 131.347 830.276 131.877 830.586 132.261C832.612 134.759 832.756 138.528 831.321 141.337C829.84 144.237 826.992 146.226 823.872 147.009Z" fill="#180205" />
    </g>
  </g>
</svg>